<svg width="32" height="32" viewBox="0 0 32 32" fill="none" xmlns="http://www.w3.org/2000/svg">
<g clip-path="url(#clip0_1_711)">
<path d="M8.09605 16.1919V15.8079C8.09605 14.8159 8.89605 14.0159 9.88805 14.0159H9.98405L10.208 13.3119H3.74405C3.64805 13.3119 3.58405 13.2159 3.61605 13.1199L4.28805 11.0399C4.38405 10.6879 4.70405 10.4639 5.05605 10.4639H10.144C10.496 10.4639 10.816 10.6879 10.912 11.0399L11.104 11.6799C11.456 11.3279 11.872 11.0719 12.32 10.9119L12.224 10.6239C11.936 9.69589 11.0721 9.08789 10.1121 9.08789H5.05605C4.09605 9.08789 3.23205 9.69589 2.94405 10.6239L2.36805 12.4159H1.50405C1.12005 12.4159 0.800049 12.7359 0.800049 13.1199V13.5039C0.800049 13.8879 1.12005 14.2079 1.50405 14.2079H1.76005C1.63205 14.8479 1.53605 15.5199 1.53605 16.1599V19.5199C1.53605 19.9039 1.85605 20.2239 2.24005 20.2239H3.39205C3.77605 20.2239 4.09605 19.9039 4.09605 19.5199V18.4319H8.86405C8.86405 18.1759 8.89605 17.9519 8.92805 17.6959C8.41605 17.3759 8.09605 16.8319 8.09605 16.1919ZM5.08805 16.5119H3.68005C3.45605 16.5119 3.26405 16.3199 3.26405 16.0639V15.3919C3.26405 15.1359 3.48805 14.9439 3.77605 14.9759L5.08805 15.1999C5.24805 15.2319 5.40805 15.3599 5.44005 15.5199L5.53605 15.9679C5.56805 16.2879 5.34405 16.5119 5.08805 16.5119Z" fill="white"/>
<path d="M30.4962 12.3838H29.6002L29.0242 10.5918C28.7362 9.66379 27.8722 9.05579 26.9122 9.05579H21.8562C20.8962 9.05579 20.0322 9.66379 19.7442 10.5918L19.6802 10.8798C20.1282 11.0398 20.5442 11.3278 20.8962 11.6478L21.0882 11.0078C21.1842 10.6558 21.5042 10.4318 21.8562 10.4318H26.9442C27.2962 10.4318 27.6162 10.6558 27.7122 11.0078L28.3842 13.0878C28.4162 13.1838 28.3522 13.2798 28.2562 13.2798H21.7922L22.0162 13.9838H22.1122C23.1042 13.9838 23.9042 14.7838 23.9042 15.7758V16.1598C23.9042 16.7678 23.5842 17.3438 23.1042 17.6638C23.1362 17.9198 23.1682 18.1758 23.1682 18.3998H27.9362V19.5198C27.9362 19.9038 28.2562 20.2238 28.6402 20.2238H29.7602C30.1442 20.2238 30.4642 19.9038 30.4642 19.5198V16.1278C30.4642 15.4558 30.4002 14.8158 30.2402 14.1758H30.4962C30.8802 14.1758 31.2002 13.8558 31.2002 13.4718V13.0878C31.2002 12.7038 30.8802 12.3838 30.4962 12.3838ZM28.7682 16.0958C28.7682 16.3198 28.5762 16.5438 28.3202 16.5438H26.9122C26.6242 16.5438 26.4322 16.2878 26.4962 16.0318L26.5922 15.5838C26.6242 15.4238 26.7842 15.2638 26.9442 15.2638L28.2562 15.0398C28.5122 15.0078 28.7682 15.1998 28.7682 15.4558V16.0958Z" fill="white"/>
<path d="M22.1121 15.1034H21.2161L20.6401 13.3114C20.3521 12.3834 19.4881 11.7754 18.5281 11.7754H13.4721C12.5121 11.7754 11.6481 12.3834 11.3601 13.3114L10.7841 15.1034H9.88808C9.50408 15.1034 9.18408 15.4234 9.18408 15.8074V16.1914C9.18408 16.5754 9.50408 16.8954 9.88808 16.8954H10.1441C10.0161 17.5354 9.92008 18.2074 9.92008 18.8474V22.2074C9.92008 22.5914 10.2401 22.9114 10.6241 22.9114H11.7761C12.1601 22.9114 12.4801 22.5914 12.4801 22.2074V21.1194H19.5201V22.2074C19.5201 22.5914 19.8401 22.9114 20.2241 22.9114H21.3761C21.7601 22.9114 22.0801 22.5914 22.0801 22.2074V18.8794C22.0801 18.2074 22.0161 17.5674 21.8561 16.9274H22.1121C22.4961 16.9274 22.8161 16.6074 22.8161 16.2234V15.8394C22.7841 15.4234 22.4961 15.1034 22.1121 15.1034ZM12.0001 15.8394L12.6721 13.7594C12.7681 13.4074 13.0881 13.1834 13.4401 13.1834H18.4961C18.8481 13.1834 19.1681 13.4074 19.2641 13.7594L19.9361 15.8394C19.9681 15.9354 19.9041 16.0314 19.8081 16.0314H12.1601C12.0641 16.0314 12.0001 15.9354 12.0001 15.8394ZM13.4721 19.2314H12.0641C11.8401 19.2314 11.6481 19.0394 11.6481 18.8154V18.1434C11.6481 17.8874 11.8721 17.6634 12.1601 17.7274L13.4721 17.9514C13.6321 17.9834 13.7921 18.1114 13.8241 18.2714L13.9201 18.7194C13.9521 19.0074 13.7601 19.2314 13.4721 19.2314ZM20.3521 18.8154C20.3521 19.0394 20.1601 19.2314 19.9361 19.2314H18.5281C18.2401 19.2314 18.0481 18.9754 18.1121 18.7194L18.2081 18.2714C18.2401 18.1114 18.4001 17.9514 18.5601 17.9514L19.8721 17.7274C20.1281 17.6954 20.3841 17.8874 20.3841 18.1434V18.8154H20.3521Z" fill="white"/>
</g>
<defs>
<clipPath id="clip0_1_711">
<rect width="32" height="32" fill="white"/>
</clipPath>
</defs>
</svg>
