<svg width="32" height="32" viewBox="0 0 32 32" fill="none" xmlns="http://www.w3.org/2000/svg">
<path d="M6.66668 15.7106V12.1924C6.82856 12.4879 7.03131 12.759 7.26896 12.9979L11.742 17.4709C12.3554 18.0855 13.1719 18.4555 14.0385 18.5114V25.7951C14.0384 25.8924 13.9996 25.9858 13.9307 26.0546L12.0603 27.9251C12.0374 27.9488 12.01 27.9676 11.9797 27.9805C11.9495 27.9934 11.9169 28 11.884 28C11.8511 28 11.8185 27.9934 11.7882 27.9805C11.7579 27.9676 11.7305 27.9488 11.7077 27.9251L9.847 26.0644C9.81182 26.0291 9.78414 25.987 9.76563 25.9407C9.74711 25.8944 9.73815 25.8449 9.73928 25.7951V24.8696C9.74024 24.7576 9.78506 24.6503 9.86414 24.5709L10.8581 23.5769C10.8735 23.5617 10.8856 23.5436 10.8939 23.5236C10.9022 23.5036 10.9065 23.4822 10.9065 23.4606C10.9065 23.439 10.9022 23.4176 10.8939 23.3977C10.8856 23.3777 10.8735 23.3596 10.8581 23.3443L9.97432 22.4605C9.86876 22.3545 9.8095 22.211 9.8095 22.0614C9.8095 21.9118 9.86876 21.7684 9.97432 21.6624L10.8581 20.7785C10.8735 20.7633 10.8856 20.7452 10.8939 20.7252C10.9022 20.7052 10.9065 20.6838 10.9065 20.6622C10.9065 20.6406 10.9022 20.6192 10.8939 20.5993C10.8856 20.5793 10.8735 20.5612 10.8581 20.5459L9.86414 19.5519C9.7832 19.4716 9.73742 19.3624 9.73683 19.2483V17.9605H8.90931C8.61419 17.9606 8.32196 17.9023 8.04939 17.7891C7.77682 17.676 7.52927 17.5101 7.32093 17.3011C7.11258 17.0921 6.94755 16.844 6.83528 16.571C6.72301 16.2981 6.66571 16.0057 6.66668 15.7106ZM8.22624 12.0381C8.01631 11.8297 7.84969 11.5818 7.73599 11.3086C7.6223 11.0355 7.56376 10.7426 7.56376 10.4468C7.56376 10.1509 7.6223 9.85799 7.73599 9.58487C7.84969 9.31175 8.01631 9.06382 8.22624 8.85537L12.4299 4.66145C12.6386 4.45182 12.8865 4.28546 13.1596 4.17195C13.4327 4.05844 13.7256 4 14.0213 4C14.3171 4 14.6099 4.05844 14.883 4.17195C15.1561 4.28546 15.4041 4.45182 15.6127 4.66145L20.0662 9.12713C20.2761 9.33558 20.4427 9.58351 20.5564 9.85663C20.6701 10.1298 20.7286 10.4227 20.7286 10.7185C20.7286 11.0144 20.6701 11.3073 20.5564 11.5804C20.4427 11.8535 20.2761 12.1015 20.0662 12.3099L19.481 12.895L25.0337 18.438C25.102 18.5062 25.1407 18.5985 25.1415 18.695V21.3294C25.1415 21.3943 25.1157 21.4566 25.0697 21.5025C25.0238 21.5484 24.9616 21.5742 24.8966 21.5742H22.2696C22.1723 21.5739 22.0791 21.5352 22.0101 21.4665L21.3491 20.8055C21.3093 20.7655 21.2778 20.7182 21.2564 20.6661C21.235 20.614 21.224 20.5582 21.2242 20.5019V19.0966C21.2233 19.0743 21.2179 19.0525 21.2083 19.0325C21.1987 19.0124 21.1851 18.9945 21.1684 18.9799C21.1517 18.9652 21.1322 18.9541 21.1111 18.9472C21.0899 18.9404 21.0676 18.9379 21.0455 18.9399H19.7968C19.7226 18.9399 19.649 18.9252 19.5804 18.8968C19.5118 18.8684 19.4495 18.8267 19.3969 18.7742C19.3444 18.7217 19.3028 18.6594 19.2743 18.5907C19.2459 18.5221 19.2313 18.4486 19.2313 18.3743V17.1183C19.2313 17.0748 19.214 17.0331 19.1832 17.0023C19.1525 16.9716 19.1108 16.9543 19.0673 16.9543H17.6619C17.605 16.9543 17.5487 16.9431 17.4962 16.9213C17.4437 16.8994 17.396 16.8674 17.3559 16.827L16.4476 15.9187L15.8624 16.5038C15.6538 16.7135 15.4058 16.8798 15.1327 16.9933C14.8596 17.1068 14.5668 17.1653 14.2711 17.1653C13.9753 17.1653 13.6825 17.1068 13.4094 16.9933C13.1363 16.8798 12.8883 16.7135 12.6797 16.5038L8.22624 12.0381ZM11.6 9.70003C11.7648 9.86446 11.9746 9.97635 12.203 10.0216C12.4313 10.0668 12.668 10.0433 12.883 9.95412C13.098 9.86491 13.2818 9.71397 13.4111 9.52037C13.5404 9.32676 13.6094 9.09919 13.6094 8.86639C13.6094 8.63359 13.5404 8.40601 13.4111 8.21241C13.2818 8.01881 13.098 7.86786 12.883 7.77866C12.668 7.68945 12.4313 7.66597 12.203 7.7112C11.9746 7.75642 11.7648 7.86832 11.6 8.03274C11.49 8.14218 11.4027 8.27227 11.3431 8.41554C11.2836 8.55882 11.2529 8.71245 11.2529 8.86761C11.2529 9.02277 11.2836 9.17641 11.3431 9.31968C11.4027 9.46295 11.49 9.59305 11.6 9.70248V9.70003Z" fill="white"/>
</svg>
