<svg width="32" height="32" viewBox="0 0 32 32" fill="none" xmlns="http://www.w3.org/2000/svg">
<path d="M16.0013 4C22.0774 4 27.0027 8.9253 27.0027 15.0013C27.0027 21.0774 22.0774 26.0027 16.0013 26.0027C9.9253 26.0027 5 21.0774 5 15.0013C5 8.9253 9.9253 4 16.0013 4ZM18.2016 16.5415L16.481 17.9178C16.4206 17.9661 16.3711 18.0267 16.3357 18.0955C16.3003 18.1643 16.2798 18.2397 16.2755 18.317C16.2713 18.3942 16.2833 18.4715 16.311 18.5437C16.3386 18.616 16.3812 18.6816 16.4359 18.7363L17.799 20.0994C18.0629 20.3636 18.2552 20.6907 18.3578 21.0499L18.5504 21.7243C18.6302 22.0072 18.772 22.2688 18.9655 22.4901C19.1591 22.7114 19.3994 22.8869 19.6692 23.0037C20.7219 22.5207 21.6688 21.8347 22.4558 20.985L22.1984 18.92C22.1534 18.5608 22.0203 18.2182 21.8112 17.9226C21.602 17.6271 21.3231 17.3878 20.9993 17.2258L19.3821 16.4161C19.1939 16.322 18.9827 16.2837 18.7735 16.306C18.5642 16.3282 18.3658 16.4099 18.2016 16.5415ZM16.0013 6.20027C14.6549 6.19937 13.3262 6.50781 12.1178 7.10179C10.9095 7.69577 9.85369 8.55942 9.03199 9.62609L8.85047 9.86922V11.7229C8.85033 12.3946 9.05511 13.0503 9.43745 13.6025C9.81979 14.1546 10.3615 14.577 10.9902 14.8132L11.1861 14.8792L12.6052 15.3138C14.1157 15.7758 15.5866 14.547 15.4403 13.0079L15.4194 12.8484L15.2269 11.6943C15.1843 11.4387 15.2334 11.1763 15.3654 10.9533C15.4974 10.7303 15.7039 10.561 15.9485 10.4754L16.0674 10.4424L16.7406 10.2884C17.1226 10.2011 17.4833 10.0381 17.8013 9.80913C18.1193 9.58016 18.3882 9.28981 18.5922 8.95521C18.7961 8.62062 18.931 8.24855 18.9888 7.86098C19.0466 7.47341 19.0262 7.07819 18.9288 6.69863C17.9883 6.3679 16.9984 6.19938 16.0013 6.20027Z" fill="white"/>
</svg>
