<svg xmlns="http://www.w3.org/2000/svg" width="25" height="25" viewBox="0 0 25 25" fill="none">
<path d="M12.5 6.5C9.2 6.5 6.5 9.2 6.5 12.5C6.5 15.8 9.2 18.5 12.5 18.5C15.8 18.5 18.5 15.8 18.5 12.5C18.5 9.2 15.8 6.5 12.5 6.5ZM12.5 16.5C10.3 16.5 8.5 14.7 8.5 12.5C8.5 10.3 10.3 8.5 12.5 8.5C14.7 8.5 16.5 10.3 16.5 12.5C16.5 14.7 14.7 16.5 12.5 16.5ZM18.5 5.5C18.5 6.1 18.1 6.5 17.5 6.5C16.9 6.5 16.5 6.1 16.5 5.5C16.5 4.9 16.9 4.5 17.5 4.5C18.1 4.5 18.5 4.9 18.5 5.5ZM20.5 0H4.5C2 0 0 2 0 4.5V20.5C0 23 2 25 4.5 25H20.5C23 25 25 23 25 20.5V4.5C25 2 23 0 20.5 0ZM22.5 20.5C22.5 21.6 21.6 22.5 20.5 22.5H4.5C3.4 22.5 2.5 21.6 2.5 20.5V4.5C2.5 3.4 3.4 2.5 4.5 2.5H20.5C21.6 2.5 22.5 3.4 22.5 4.5V20.5Z" fill="white"/>
</svg>
