<?xml version="1.0" encoding="UTF-8"?> <svg xmlns="http://www.w3.org/2000/svg" width="20" height="16" viewBox="0 0 20 16" fill="none"><path d="M18 0C19.1 0 20 0.9 20 2V14C20 15.1 19.1 16 18 16H2C0.9 16 0 15.1 0 14V2C0 0.9 0.9 1.30047e-07 2 0H18ZM17.3555 2.67676C17.2428 2.65355 17.1263 2.6528 17.0137 2.67578C16.9013 2.69876 16.7946 2.74429 16.7002 2.80957L10 7L3.2998 2.80957C3.20544 2.74429 3.09875 2.69876 2.98633 2.67578C2.87366 2.6528 2.75716 2.65355 2.64453 2.67676C2.5321 2.69994 2.42533 2.74506 2.33105 2.81055C2.23665 2.87621 2.15665 2.96108 2.0957 3.05859C2.03484 3.15598 1.99425 3.26446 1.97656 3.37793C1.95891 3.49156 1.9637 3.60832 1.99219 3.71973C2.02067 3.83096 2.0717 3.93527 2.1416 4.02637C2.21163 4.11757 2.30012 4.19371 2.40039 4.25L8.94043 8.33984C9.59031 8.74964 10.4097 8.74964 11.0596 8.33984L17.5996 4.25C17.6999 4.19371 17.7884 4.11757 17.8584 4.02637C17.9283 3.93527 17.9793 3.83097 18.0078 3.71973C18.0363 3.60832 18.0411 3.49156 18.0234 3.37793C18.0057 3.26446 17.9652 3.15598 17.9043 3.05859C17.8434 2.96108 17.7633 2.87621 17.6689 2.81055C17.5747 2.74506 17.4679 2.69994 17.3555 2.67676Z" fill="white"></path></svg> 