<?xml version="1.0" encoding="UTF-8"?> <svg xmlns="http://www.w3.org/2000/svg" width="24" height="24" viewBox="0 0 24 24" fill="none"><path d="M11.5957 0C13.1549 1.49174e-05 14.6668 0.283621 16.0938 0.850586C17.4735 1.39871 18.7114 2.1835 19.7793 3.17578C20.8471 4.17742 21.6885 5.33925 22.2744 6.63379C22.8792 7.98519 23.1911 9.41278 23.1816 10.8965C23.1816 12.3706 22.8694 13.8066 22.2646 15.1484C21.6788 16.443 20.8382 17.6058 19.7705 18.6074C18.7027 19.6091 17.4646 20.3845 16.085 20.9326C14.658 21.4996 13.1452 21.7832 11.5859 21.7832C9.91329 21.7832 8.31603 21.4619 6.81348 20.8193L1.78613 23.0586L2.73145 17.9082C0.964232 15.9425 0 13.4667 0 10.8867C9.79949e-06 9.41249 0.31218 7.97572 0.916992 6.63379C1.50282 5.33944 2.34358 4.17731 3.41113 3.17578C4.47902 2.17405 5.71791 1.39871 7.09766 0.850586C8.52455 0.283662 10.0365 0 11.5957 0ZM8.4502 6.1543C7.16505 5.49282 6.42745 6.81594 6.125 7.50586C4.30108 11.9003 15.2639 20.2637 17.4941 14.499C17.6074 13.9985 17.5597 13.8097 17.3896 13.583C17.0494 13.3468 16.6524 13.2421 16.3027 13.0625C15.8116 12.8169 15.4523 12.6658 15.1973 12.5713C15.0365 12.5145 14.6587 12.3445 14.5264 12.4482C14.1106 12.7884 13.6668 13.7528 13.1943 13.9326C12.0225 13.7058 10.9355 12.9022 10.085 12.0801C9.70695 11.721 9.00765 10.6998 8.85645 10.4258C8.82871 10.1426 9.33725 9.76518 9.45117 9.54785C10.0369 8.88652 9.59337 8.47035 9.51758 8.19629C9.38527 7.91278 9.15842 7.40214 8.95996 6.98633C8.78994 6.7123 8.75247 6.30552 8.4502 6.1543Z" fill="white"></path></svg> 